<svg xmlns="http://www.w3.org/2000/svg" xmlns:xlink="http://www.w3.org/1999/xlink" width="500" zoomAndPan="magnify" viewBox="0 0 375 374.999991" height="500" preserveAspectRatio="xMidYMid meet" version="1.2"><defs><clipPath id="0115e472bc"><path d="M 141 120.769531 L 274 120.769531 L 274 358.519531 L 141 358.519531 Z M 141 120.769531 "/></clipPath><clipPath id="f4f57fc1bd"><path d="M 33 135 L 134 135 L 134 315 L 33 315 Z M 33 135 "/></clipPath><clipPath id="686cdbec38"><path d="M 56.84375 135.210938 C 54.570312 146.621094 60.277344 158.386719 68.492188 166.597656 C 76.703125 174.8125 87.214844 180.28125 97.25 186.152344 C 107.289062 192.023438 117.300781 198.699219 123.621094 208.472656 C 129.113281 216.972656 131.339844 227.152344 132.5 237.210938 C 133.894531 249.378906 133.707031 262.183594 129.824219 273.664062 C 127.007812 266.753906 123.335938 260.125 119.148438 253.949219 C 110.933594 241.78125 100.824219 231.035156 90.765625 220.359375 C 79 207.882812 67.257812 195.40625 55.496094 182.933594 C 67.660156 205.753906 86.527344 224.121094 102.484375 244.503906 C 118.4375 264.859375 132.023438 289.171875 130.535156 314.996094 C 129.351562 301.789062 118.628906 291.300781 107.003906 284.910156 C 95.382812 278.519531 82.339844 274.96875 70.859375 268.292969 C 49.175781 255.605469 34.59375 231.554688 33.457031 206.484375 C 32.320312 181.132812 43.894531 157.035156 56.84375 135.210938 Z M 56.84375 135.210938 "/></clipPath><linearGradient x1="-1204.20996" gradientTransform="matrix(-0.236716,0,0,0.236716,-201.720531,120.770967)" y1="61.000002" x2="-1204.20996" gradientUnits="userSpaceOnUse" y2="820.50003" id="f8c7c262c6"><stop style="stop-color:#88bf42;stop-opacity:1;" offset="0"/><stop style="stop-color:#88bf42;stop-opacity:1;" offset="0.125"/><stop style="stop-color:#88be42;stop-opacity:1;" offset="0.25"/><stop style="stop-color:#87be42;stop-opacity:1;" offset="0.375"/><stop style="stop-color:#87bd42;stop-opacity:1;" offset="0.5"/><stop style="stop-color:#86bd42;stop-opacity:1;" offset="0.625"/><stop style="stop-color:#86bc41;stop-opacity:1;" offset="0.75"/><stop style="stop-color:#85bb41;stop-opacity:1;" offset="0.875"/><stop style="stop-color:#85bb41;stop-opacity:1;" offset="1"/></linearGradient></defs><g id="6cb7518df6"><g style="fill:#1d4b0b;fill-opacity:1;"><g transform="translate(46.698534, 358.065898)"><path style="stroke:none" d="M 25.359375 -348.671875 L 152.5625 -348.671875 C 188.0625 -348.671875 216.800781 -339.507812 238.78125 -321.1875 C 260.757812 -302.875 271.75 -276.25 271.75 -241.3125 C 271.75 -206.375 260.617188 -178.972656 238.359375 -159.109375 C 216.097656 -139.253906 187.5 -129.328125 152.5625 -129.328125 L 104.8125 -129.328125 L 104.8125 0 L 25.359375 0 Z M 104.8125 -192.71875 L 127.203125 -192.71875 C 144.953125 -192.71875 159.53125 -196.304688 170.9375 -203.484375 C 182.351562 -210.671875 188.0625 -222.4375 188.0625 -238.78125 C 188.0625 -255.40625 182.351562 -267.304688 170.9375 -274.484375 C 159.53125 -281.671875 144.953125 -285.265625 127.203125 -285.265625 L 104.8125 -285.265625 Z M 104.8125 -192.71875 "/></g></g><g clip-rule="nonzero" clip-path="url(#0115e472bc)"><path style=" stroke:none;fill-rule:nonzero;fill:#8cc342;fill-opacity:1;" d="M 242.097656 120.769531 C 245.105469 135.824219 237.578125 151.355469 226.734375 162.195312 C 215.894531 173.0625 202.023438 180.257812 188.789062 188 C 175.535156 195.738281 162.300781 204.570312 153.992188 217.46875 C 146.75 228.691406 143.789062 242.136719 142.273438 255.390625 C 140.382812 271.488281 140.640625 288.367188 145.753906 303.515625 C 149.472656 294.378906 154.324219 285.644531 159.839844 277.476562 C 170.679688 261.402344 184.03125 247.226562 197.3125 233.117188 C 212.839844 216.640625 228.34375 200.1875 243.875 183.714844 C 227.800781 213.824219 202.898438 238.109375 181.855469 264.976562 C 160.808594 291.871094 142.867188 323.96875 144.832031 358.054688 C 146.394531 340.609375 160.550781 326.761719 175.914062 318.335938 C 191.273438 309.90625 208.484375 305.195312 223.609375 296.390625 C 252.230469 279.726562 271.476562 247.957031 272.964844 214.867188 C 274.480469 181.394531 259.210938 149.554688 242.097656 120.769531 Z M 242.097656 120.769531 "/></g><g clip-rule="nonzero" clip-path="url(#f4f57fc1bd)"><g clip-rule="nonzero" clip-path="url(#686cdbec38)"><path style=" stroke:none;fill-rule:nonzero;fill:url(#f8c7c262c6);" d="M 133.894531 135.210938 L 133.894531 314.996094 L 32.320312 314.996094 L 32.320312 135.210938 Z M 133.894531 135.210938 "/></g></g></g></svg>